# xmcd CD database file
#
# Track frame offsets:
#	150
#	18855
#	43684
#	60038
#	78923
#	104915
#	126716
#	144234
#	164813
#	190605
#	209258
#	223743
#	244238
#	262048
#	282295
#	303824
#	325253
#
# Disc length: 4607 seconds
#
# Revision: 1
# Processed by: cddbd v1.5.2PL0 Copyright (c) Steve Scherf et al.
# Submitted via: Feurio! 1.68 - http://www.feurio.com
#
DISCID=fb11fd11
DTITLE=Various Artist - 2010 Steppers Go 2 Work Part V
DYEAR=2010
DGENRE=R&B
TTITLE0=Samuri Champloo - Mist
TTITLE1=Smokey Robinson - Love Bath
TTITLE2=Carmichael - I Got You
TTITLE3=Dee Samples - No Rainy Days
TTITLE4=Cloud Officers - Klangart
TTITLE5=Flash Baxx - Sand Bank
TTITLE6=Carmichael - The Nite Life
TTITLE7=Michael Avery - Best Friend
TTITLE8=Mono Deluxe - Lemon Square
TTITLE9=Jonathan Butler - Factual
TTITLE10=Ty Causey - Wishing You Were Mine
TTITLE11=Mark Down - Right Control
TTITLE12=Keith Sweat - Famous
TTITLE13=Randy Muler - Easy Luv
TTITLE14=Zsa Zsa - Angel
TTITLE15=Zsa Zsa - Weak
TTITLE16=Michael Ross - Gypsy Woman
EXTD=
EXTT0=
EXTT1=
EXTT2=
EXTT3=
EXTT4=
EXTT5=
EXTT6=
EXTT7=
EXTT8=
EXTT9=
EXTT10=
EXTT11=
EXTT12=
EXTT13=
EXTT14=
EXTT15=
EXTT16=
PLAYORDER=
